<?xml version="1.0" encoding="UTF-8"?>
<svg width="40px" height="40px" viewBox="0 0 40 40" version="1.1" xmlns="http://www.w3.org/2000/svg" xmlns:xlink="http://www.w3.org/1999/xlink">
    <!-- Generator: Sketch 47.1 (45422) - http://www.bohemiancoding.com/sketch -->
    <title>avatar</title>
    <desc>Created with Sketch.</desc>
    <defs></defs>
    <g id="Page-1" stroke="none" stroke-width="1" fill="none" fill-rule="evenodd">
        <g id="Desktop" transform="translate(-1074.000000, -159.000000)">
            <g id="Header" transform="translate(193.000000, 159.000000)">
                <g id="User" transform="translate(755.000000, 0.000000)">
                    <g id="avatar" transform="translate(126.000000, 0.000000)">
                        <g id="Group-3">
                            <circle id="Oval-2" fill="#006A4C" cx="20" cy="20" r="20"></circle>
                            <path d="M24.3295898,0.469887543 C22.9354337,0.162206722 21.4866596,0 20,0 C8.954305,0 0,8.954305 0,20 C0,31.045695 8.954305,40 20,40 C21.4866596,40 22.9354337,39.8377933 24.3295898,39.5301125 L24.3295898,33 L13.4428711,33 L13.4428711,25 L24.3295898,25 L24.3295898,0.469887543 Z" id="Combined-Shape" fill="#16AB81"></path>
                            <path d="M7,15 C7,12.2385763 9.23857625,10 12,10 C14.7614237,10 17,12.2385763 17,15 L7,15 Z" id="Combined-Shape" fill="#47DCB2"></path>
                            <path d="M22.7646381,0.189528387 C23.9169298,0.34885827 25.0378629,0.606354721 26.1187228,0.953303087 L29.4995117,21.6035156 L17.8847656,21.6035156 C18.8020833,18.3821615 20.2652995,16.7945964 22.2744141,16.8408203 C22.5247944,16.8465808 22.5679259,16.8320952 22.4038086,16.7973633 L22.6455078,0.26953125 L22.7646381,0.189528387 Z" id="Combined-Shape" fill="#47DCB2"></path>
                            <path d="M23,25 L9,25 C8.50325521,30.1935221 9.83658854,32.8601888 13,33 C15.0443518,33.0410933 18.3776851,33.0410933 23,33 L23,25 Z" id="Path-4" fill="#FFFFFF"></path>
                        </g>
                    </g>
                </g>
            </g>
        </g>
    </g>
</svg>